<?xml version="1.0" encoding="iso-8859-1"?>
<!-- Uploaded to: SVG Repo, www.svgrepo.com, Generator: SVG Repo Mixer Tools -->
<svg version="1.1" id="Layer_1" xmlns="http://www.w3.org/2000/svg" xmlns:xlink="http://www.w3.org/1999/xlink" 
	 viewBox="0 0 512 512" xml:space="preserve">
<g>
	<rect x="392.054" y="187.861" style="fill:#AA603B;" width="112.042" height="112.042"/>
	<rect x="392.054" y="187.861" style="fill:#AA603B;" width="32.013" height="112.042"/>
</g>
<path style="fill:#FFFFFF;" d="M480.295,187.971v11.897c0,17.68-14.437,32.013-32.117,32.013s-32.117-14.333-32.117-32.013v-11.897"
	/>
<polygon style="fill:#C5FFCA;" points="367.621,283.903 367.621,59.501 175.97,59.501 175.97,219.562 247.576,219.562 
	247.576,452.282 336.03,452.282 336.03,299.592 367.621,299.592 "/>
<polyline style="fill:#F2BF7E;" points="272.006,166.399 207.98,166.399 207.98,126.383 296.016,126.383 296.016,150.392 "/>
<polyline style="fill:#B3B3B3;" points="504.101,300.433 464.086,356.456 304.02,356.456 336.033,299.592 504.515,299.592 
	504.515,452.282 336.03,452.282 336.03,356.456 "/>
<rect x="7.898" y="219.873" style="fill:#AA603B;" width="240.101" height="232.098"/>
<g>
	<polygon style="fill:#F2BF7E;" points="464.086,355.933 304.02,355.933 336.033,299.909 504.102,299.909 	"/>
	<rect x="87.928" y="219.873" style="fill:#F2BF7E;" width="72.027" height="56.021"/>
	<rect x="87.928" y="395.95" style="fill:#F2BF7E;" width="72.027" height="56.021"/>
</g>
<rect x="7.898" y="219.873" style="fill:#AA603B;" width="56.021" height="232.098"/>
<polygon points="376.045,283.797 360.25,283.797 360.25,67.926 183.341,67.926 183.341,203.767 167.545,203.767 167.545,52.13 
	376.045,52.13 "/>
<rect x="264.426" y="443.852" width="55.811" height="15.795"/>
<rect x="262.056" y="156.455" transform="matrix(-0.8213 0.5705 -0.5705 -0.8213 633.9769 146.3374)" style="fill:#FFFFFF;" width="64.026" height="32.013"/>
<path d="M313.215,130.059l-9.301,6.461v-18.035H200.082v55.813h49.448l-1.872,1.3l27.275,39.265l65.557-45.538L313.215,130.059z
	 M215.877,158.501v-24.222h72.241v13.211l-16.112,11.192V158.5h-56.129V158.501z M269.643,179.557l39.612-27.516l9.252,13.32
	l-39.612,27.516L269.643,179.557z"/>
<path d="M0,211.978V459.87h255.895V211.978H0z M95.939,227.774h55.811V268H95.939V227.774z M151.75,444.074H95.939v-40.233h55.811
	V444.074z M240.099,444.074h-72.554v-56.029H80.144v56.029H15.795V227.774h64.349v56.022h87.401v-56.022h72.554V444.074z"/>
<rect x="95.942" y="323.807" style="fill:#FFFFFF;" width="64.235" height="15.795"/>
<rect x="95.942" y="356.451" style="fill:#C5FFCA;" width="31.591" height="15.795"/>
<rect x="304.441" y="83.716" style="fill:#FFFFFF;" width="40.015" height="15.795"/>
<rect x="392.054" y="419.959" style="fill:#C5FFCA;" width="56.021" height="32.013"/>
<path d="M512,179.966H384.159v112.255h-52.7l-41.073,71.606h177.743l27.962-38.784v118.814h-40.015v-31.591H384.47v31.591h-40.015
	v-71.606h-15.795v87.401h183.227V307.807H512V179.966L512,179.966z M400.265,443.857v-15.795h40.015v15.795H400.265z
	 M424.485,195.761h47.386v4.107c0,13.523-10.407,24.115-23.693,24.115s-23.693-10.592-23.693-24.115V195.761z M399.954,195.761
	h8.735v4.107c0,22.006,17.714,39.911,39.489,39.911s39.489-17.904,39.489-39.911v-4.107h8.538v96.25h-96.25V195.761z
	 M460.043,348.032H317.655l22.953-40.015h148.287L460.043,348.032z"/>
<g>
	<rect x="416.063" y="259.572" style="fill:#FFFFFF;" width="64.235" height="15.795"/>
	<rect x="416.063" y="372.246" style="fill:#FFFFFF;" width="71.606" height="15.795"/>
</g>
</svg>